<svg xmlns="http://www.w3.org/2000/svg" width="114" height="28" viewBox="0 0 114 28" fill="none" data-v-3213cd01=""><g clip-path="url(#clip0_6684_22274)"><path d="M12.7922 27.2991C5.73843 27.2991 0 21.5599 0 14.5061C0 7.45235 5.73843 1.71393 12.7922 1.71393C14.4896 1.70867 16.1709 2.04375 17.7367 2.69937C19.3025 3.35499 20.7209 4.31784 21.9082 5.53101L18.1511 9.2304C16.9898 8.05191 15.472 7.28946 13.8333 7.06125C12.1945 6.83303 10.5262 7.1518 9.08707 7.96813C7.64789 8.78446 6.5182 10.0528 5.87314 11.5764C5.22808 13.1001 5.10366 14.794 5.51918 16.3955C5.93471 17.9971 6.86696 19.4168 8.17142 20.4347C9.47588 21.4525 11.0797 22.0116 12.7342 22.0253C14.3887 22.039 16.0015 21.5064 17.3226 20.5103C18.6437 19.5141 19.5993 18.11 20.0413 16.5155L20.2542 15.6525C20.7906 13.7094 21.9523 11.9972 23.5596 10.7807C25.1669 9.56412 27.1302 8.91106 29.1459 8.92247C31.1617 8.93389 33.1175 9.60914 34.7109 10.8438C36.3043 12.0785 37.4465 13.8037 37.9609 15.7528C38.4752 17.7018 38.3331 19.766 37.5564 21.6262C36.7797 23.4863 35.4118 25.0387 33.6642 26.0433C31.9166 27.0478 29.8866 27.4486 27.8884 27.1836C25.8901 26.9186 24.0348 26.0025 22.6095 24.5772L26.3385 20.8506C26.9433 21.4547 27.73 21.8432 28.5774 21.9561C29.4247 22.069 30.2857 21.9001 31.0276 21.4755C31.7695 21.0508 32.3512 20.394 32.683 19.6061C33.0148 18.8183 33.0782 17.9432 32.8636 17.1157C32.649 16.2882 32.1682 15.5543 31.4954 15.027C30.8225 14.4998 29.9949 14.2084 29.1401 14.1979C28.2853 14.1873 27.4508 14.4582 26.7651 14.9687C26.0795 15.4793 25.5807 16.2011 25.3458 17.0231L25.1376 17.8749C24.395 20.5804 22.7851 22.9675 20.555 24.6699C18.3249 26.3723 15.5978 27.2959 12.7922 27.2991Z" fill="#5285F2"/> <path d="M39.293 2.43457H44.5655V27.2648H39.293V2.43457Z" fill="#5285F2"/> <path d="M46.707 2.43457H51.9795V27.2648H46.707V2.43457Z" fill="#5285F2"/> <path d="M70.6598 20.1218H58.0742C58.7883 22.0263 60.556 22.979 62.904 22.979C64.4691 22.979 65.8661 22.6043 67.1558 21.618L69.5375 24.0998C68.0748 25.9363 65.5571 27.2628 62.326 27.2628C57.4282 27.2628 53.0059 23.9293 53.0059 18.1132C53.0059 12.1266 57.4618 8.89551 62.0202 8.89551C66.5097 8.89711 71.7822 12.0265 70.6598 20.1218ZM57.9717 16.3463H66.0334C65.6595 14.3049 63.8567 13.3186 62.0882 13.3186C60.3198 13.3186 58.5506 14.2369 57.9717 16.3463Z" fill="#5285F2"/> <path d="M71.8398 18.0471C71.8398 12.0605 76.5335 8.89746 81.2617 8.89746C84.3911 8.89746 87.1458 10.3257 88.8806 13.2509L85.0715 15.7327C84.2205 14.5758 82.962 13.6576 81.2617 13.6576C78.9825 13.6576 77.0435 15.358 77.0435 18.0455C77.0435 20.801 78.9825 22.5014 81.2617 22.5014C82.962 22.5014 84.2237 21.5832 85.0715 20.4264L88.8806 22.9081C87.1458 25.7653 84.3911 27.2615 81.2617 27.2615C76.5327 27.2647 71.8398 24.1017 71.8398 18.0471Z" fill="#5285F2"/> <path d="M101.51 9.23757V13.4205H97.8021V20.632C97.8021 20.724 97.8078 20.816 97.8189 20.9074V27.2654H92.5352V21.8088C92.5352 21.7023 92.5288 21.5926 92.5288 21.483V13.4205H89.9102V9.23757H92.5288V2.77383H92.5352V2.43359H97.8189V9.23837L101.51 9.23757Z" fill="#5285F2"/> <path d="M103.992 0H107.543V0.896629H106.327V4.59202H105.206V0.896629H103.992V0Z" fill="#5285F2"/> <path d="M108.106 0H109.426L110.717 3.17983L111.991 0H113.306V4.59202H112.185V1.84129L111.159 4.59522H110.256L109.222 1.83489V4.59202H108.102L108.106 0Z" fill="#5285F2"/></g> <defs><clipPath id="clip0_6684_22274"><rect width="113.307" height="27.2992" fill="white"/></clipPath></defs></svg>