<svg xmlns="http://www.w3.org/2000/svg" width="258" height="165" viewBox="0 0 258 165" fill="none" class="hero-home__content--spiral" data-v-8f8163e8=""><path fill-rule="evenodd" clip-rule="evenodd" d="M120.76 139.527C149.876 155.304 183.176 166.893 216.192 164.623C228.205 163.798 239.325 160.334 250.741 156.89C251.542 156.65 251.998 155.801 251.758 154.996C251.514 154.191 250.665 153.735 249.86 153.979C238.664 157.355 227.764 160.778 215.983 161.587C183.436 163.826 150.629 152.301 121.954 136.716L122.158 136.256C124.388 131.262 123.007 123.975 119.363 116.326C114.141 105.362 104.419 93.5816 95.669 87.0745C91.7368 84.1514 87.9687 82.2933 84.8613 81.9049C82.4387 81.6006 80.3605 82.1452 78.7547 83.5948C75.335 86.6861 75.4551 91.9598 78.1661 98.0744C83.8322 110.864 100.474 127.707 109.5 133.108C112.319 134.794 115.186 136.452 118.097 138.066C117.729 138.955 117.365 139.824 116.972 140.653C115.847 143.011 114.465 145.073 111.802 146.487C107.65 148.685 102.673 149.066 97.5791 148.497C89.6305 147.604 81.4016 144.373 75.343 141.598C41.6025 126.141 24.8924 99.3318 15.9307 72.4187C6.8849 45.2372 5.69962 17.9276 3.02072 1.81818C2.88457 0.989279 2.09973 0.432678 1.27083 0.568826C0.44193 0.704973 -0.118675 1.48982 0.0214766 2.31872C2.71639 18.5323 3.93768 46.0181 13.0475 73.3797C22.2415 101.01 39.4401 128.495 74.0736 144.365C80.3845 147.256 88.9618 150.591 97.2387 151.52C102.969 152.161 108.555 151.648 113.228 149.174C117.421 146.951 119.086 143.484 120.76 139.527ZM119.279 135.243L119.383 135.014C121.333 130.65 119.803 124.323 116.616 117.636C111.598 107.1 102.264 95.7719 93.8511 89.5172C90.9679 87.3708 88.2089 85.8292 85.7823 85.1805C83.7801 84.6479 82.0423 84.724 80.7969 85.8532C79.6157 86.9144 79.1471 88.3759 79.1671 90.0778C79.1872 92.0759 79.8519 94.3704 80.9451 96.8411C86.391 109.13 102.388 125.308 111.062 130.498C113.757 132.107 116.496 133.693 119.279 135.243Z" fill="#25AD25"/> <path fill-rule="evenodd" clip-rule="evenodd" d="M254.602 152.182C254.47 152.835 254.025 153.656 253.537 154.533C252.376 156.623 250.722 158.85 249.985 159.931C249.513 160.628 249.697 161.573 250.389 162.045C251.086 162.518 252.031 162.337 252.504 161.641C253.405 160.315 255.603 157.344 256.784 154.881C257.417 153.56 257.745 152.339 257.673 151.462C257.553 149.968 256.372 149.035 254.029 149.091C251.258 149.159 246.113 150.549 241.804 148.879C241.023 148.574 240.138 148.967 239.838 149.748C239.534 150.533 239.922 151.414 240.707 151.718C244.815 153.308 249.605 152.543 252.828 152.222C253.441 152.162 254.17 152.17 254.602 152.182Z" fill="#25AD25"/></svg>