<svg width="24" height="24" viewBox="0 0 24 24" fill="none" xmlns="http://www.w3.org/2000/svg">
<path fill-rule="evenodd" clip-rule="evenodd" d="M0 12C0 5.37258 5.37258 0 12 0C18.6274 0 24 5.37258 24 12C24 18.6274 18.6274 24 12 24C5.37258 24 0 18.6274 0 12Z" fill="#C4D4E9"/>
<path d="M12 5C8.7 5 6 7.93023 6 11.5391C6 14.8022 8.196 17.5105 11.064 18V13.4317H9.54V11.5391H11.064V10.0969C11.064 8.45884 11.958 7.55824 13.332 7.55824C13.986 7.55824 14.67 7.68223 14.67 7.68223V9.29419H13.914C13.17 9.29419 12.936 9.7967 12.936 10.3123V11.5391H14.604L14.334 13.4317H12.936V18C14.3498 17.7572 15.6373 16.9725 16.5659 15.7877C17.4945 14.6029 18.0032 13.0961 18 11.5391C18 7.93023 15.3 5 12 5Z" fill="#2A2A2A"/>
</svg>
