<svg xmlns="http://www.w3.org/2000/svg" width="56" height="56" viewBox="0 0 56 56" fill="none">
<circle cx="28" cy="28" r="28" fill="#F4F7FE"/>
<path d="M20.2844 24.3137H20.5581C21.6118 24.3137 22.4739 25.1758 22.4739 26.2295V35.8083C22.4739 36.862 21.6118 37.724 20.5581 37.724H20.2844C19.2307 37.724 18.3687 36.862 18.3687 35.8083V26.2295C18.3687 25.1758 19.2307 24.3137 20.2844 24.3137ZM27.9475 18.5664C29.0011 18.5664 29.8632 19.4285 29.8632 20.4822V35.8083C29.8632 36.862 29.0011 37.724 27.9475 37.724C26.8938 37.724 26.0317 36.862 26.0317 35.8083V20.4822C26.0317 19.4285 26.8938 18.5664 27.9475 18.5664ZM35.6105 29.5136C36.6642 29.5136 37.5263 30.3757 37.5263 31.4294V35.8083C37.5263 36.862 36.6642 37.724 35.6105 37.724C34.5569 37.724 33.6948 36.862 33.6948 35.8083V31.4294C33.6948 30.3757 34.5569 29.5136 35.6105 29.5136Z" fill="#5285F2"/>
</svg>