<svg xmlns="http://www.w3.org/2000/svg" width="48" height="49" viewBox="0 0 48 49" fill="none" class="icon" data-v-8f8163e8=""><path opacity="0.4" d="M5.50012 37.9379C4.68012 37.9379 4.00012 37.2579 4.00012 36.4379V25.0379C3.90012 19.6179 5.92013 14.4979 9.68013 10.6579C13.4401 6.83792 18.4801 4.73792 23.9001 4.73792C34.9801 4.73792 44.0001 13.7579 44.0001 24.8379V36.2379C44.0001 37.0579 43.3201 37.7379 42.5001 37.7379C41.6801 37.7379 41.0001 37.0579 41.0001 36.2379V24.8379C41.0001 15.4179 33.3401 7.73792 23.9001 7.73792C19.2801 7.73792 15.0001 9.51792 11.8201 12.7579C8.62012 16.0179 6.92012 20.3579 7.00012 24.9979V36.4179C7.00012 37.2579 6.34012 37.9379 5.50012 37.9379Z" fill="#8B82A7"/> <path d="M11.88 25.538H11.62C7.42 25.538 4 28.958 4 33.158V36.918C4 41.118 7.42 44.538 11.62 44.538H11.88C16.08 44.538 19.5 41.118 19.5 36.918V33.158C19.5 28.958 16.08 25.538 11.88 25.538Z" fill="#8B82A7"/> <path d="M36.38 25.538H36.12C31.92 25.538 28.5 28.958 28.5 33.158V36.918C28.5 41.118 31.92 44.538 36.12 44.538H36.38C40.58 44.538 44 41.118 44 36.918V33.158C44 28.958 40.58 25.538 36.38 25.538Z" fill="#8B82A7"/></svg>