<svg xmlns="http://www.w3.org/2000/svg" width="38" height="39" viewBox="0 0 38 39" fill="none"><circle cx="18.9266" cy="19.2254" r="18.9266" fill="#EAF0FD"/> <path opacity="0.4" d="M29 16.2256V23.6856C29 25.9756 27.14 27.8256 24.85 27.8256H13.15C10.86 27.8256 9 25.9756 9 23.6856V16.2256H29Z" fill="#5285F2"/> <path d="M29 14.7656V16.2256H9V14.7656C9 12.4756 10.86 10.6256 13.15 10.6256H24.85C27.14 10.6256 29 12.4756 29 14.7656Z" fill="#5285F2"/> <path d="M15 24.4756H13C12.59 24.4756 12.25 24.1356 12.25 23.7256C12.25 23.3156 12.59 22.9756 13 22.9756H15C15.41 22.9756 15.75 23.3156 15.75 23.7256C15.75 24.1356 15.41 24.4756 15 24.4756Z" fill="#5285F2"/> <path d="M21.5 24.4756H17.5C17.09 24.4756 16.75 24.1356 16.75 23.7256C16.75 23.3156 17.09 22.9756 17.5 22.9756H21.5C21.91 22.9756 22.25 23.3156 22.25 23.7256C22.25 24.1356 21.91 24.4756 21.5 24.4756Z" fill="#5285F2"/></svg>