<svg xmlns="http://www.w3.org/2000/svg" width="48" height="49" viewBox="0 0 48 49" fill="none" class="icon" data-v-8f8163e8=""><path opacity="0.4" d="M16.001 44.6377H32.001C37.521 44.6377 42.001 40.1577 42.001 34.6377V14.6377C42.001 9.1177 37.521 4.6377 32.001 4.6377H16.001C10.481 4.6377 6.00098 9.1177 6.00098 14.6377V34.6377C6.00098 40.1577 10.481 44.6377 16.001 44.6377Z" fill="#8B82A7"/> <path opacity="0.6" d="M18.0002 13.2827H30.0002C31.4037 13.2827 32.5352 14.4143 32.5352 15.8177V17.8177C32.5352 19.217 31.3879 20.3527 30.0002 20.3527H18.0002C16.601 20.3527 15.4652 19.2054 15.4652 17.8177V15.8177C15.4652 14.4185 16.6125 13.2827 18.0002 13.2827Z" fill="#8B82A7" stroke="#8B82A7" stroke-width="2.45"/> <path d="M16.3208 30.4783C16.0408 30.4783 15.7808 30.4183 15.5408 30.3183C15.3008 30.2183 15.0808 30.0783 14.9008 29.8983C14.5208 29.5183 14.3008 29.0183 14.3008 28.4783C14.3008 28.2183 14.3608 27.9583 14.4608 27.7183C14.5608 27.4583 14.7008 27.2583 14.9008 27.0583C15.3608 26.5983 16.0608 26.3783 16.7008 26.5183C16.8208 26.5383 16.9608 26.5783 17.0808 26.6383C17.2008 26.6783 17.3208 26.7383 17.4208 26.8183C17.5408 26.8783 17.6408 26.9783 17.7208 27.0583C17.9008 27.2583 18.0608 27.4583 18.1608 27.7183C18.2608 27.9583 18.3008 28.2183 18.3008 28.4783C18.3008 29.0183 18.1008 29.5183 17.7208 29.8983C17.3408 30.2783 16.8408 30.4783 16.3208 30.4783Z" fill="#8B82A7"/> <path d="M24.3008 30.4779C23.7808 30.4779 23.2808 30.2779 22.9008 29.8979C22.5208 29.5179 22.3008 29.0179 22.3008 28.4779C22.3008 27.9579 22.5208 27.4379 22.9008 27.0579C23.6408 26.3179 24.9808 26.3179 25.7208 27.0579C25.9008 27.2579 26.0608 27.4579 26.1608 27.7179C26.2608 27.9579 26.3008 28.2179 26.3008 28.4779C26.3008 29.0179 26.1008 29.5179 25.7208 29.8979C25.3408 30.2779 24.8408 30.4779 24.3008 30.4779Z" fill="#8B82A7"/> <path d="M32.2998 30.4779C31.7798 30.4779 31.2798 30.2779 30.8998 29.8979C30.5198 29.5179 30.2998 29.0179 30.2998 28.4779C30.2998 27.9579 30.5198 27.4379 30.8998 27.0579C31.6398 26.3179 32.9798 26.3179 33.7198 27.0579C34.0998 27.4379 34.3198 27.9579 34.3198 28.4779C34.3198 28.7379 34.2598 28.9979 34.1598 29.2379C34.0598 29.4779 33.9198 29.6979 33.7198 29.8979C33.3398 30.2779 32.8398 30.4779 32.2998 30.4779Z" fill="#8B82A7"/> <path d="M16.3208 38.4782C15.7808 38.4782 15.2808 38.2782 14.9008 37.8982C14.5208 37.5182 14.3008 37.0182 14.3008 36.4782C14.3008 35.9582 14.5208 35.4382 14.9008 35.0582C15.0808 34.8782 15.3008 34.7382 15.5408 34.6382C16.0408 34.4382 16.5808 34.4382 17.0808 34.6382C17.2008 34.6782 17.3208 34.7382 17.4208 34.8182C17.5408 34.8782 17.6408 34.9782 17.7208 35.0582C18.1008 35.4382 18.3208 35.9582 18.3208 36.4782C18.3208 37.0182 18.1008 37.5182 17.7208 37.8982C17.3408 38.2782 16.8408 38.4782 16.3208 38.4782Z" fill="#8B82A7"/> <path d="M24.3008 38.4777C23.7808 38.4777 23.2808 38.2777 22.9008 37.8977C22.5208 37.5177 22.3008 37.0177 22.3008 36.4777C22.3008 36.3377 22.3208 36.2177 22.3408 36.0777C22.3808 35.9577 22.4208 35.8377 22.4608 35.7177C22.5208 35.5977 22.5808 35.4777 22.6408 35.3577C22.7208 35.2577 22.8008 35.1577 22.9008 35.0577C23.0808 34.8777 23.3008 34.7377 23.5408 34.6377C24.2808 34.3377 25.1608 34.4977 25.7208 35.0577C26.1008 35.4377 26.3008 35.9577 26.3008 36.4777C26.3008 37.0177 26.1008 37.5177 25.7208 37.8977C25.5408 38.0777 25.3208 38.2177 25.0808 38.3177C24.8408 38.4177 24.5808 38.4777 24.3008 38.4777Z" fill="#8B82A7"/> <path d="M32.3013 38.4783C32.0413 38.4783 31.7813 38.4183 31.5413 38.3183C31.3013 38.2183 31.0813 38.0783 30.9013 37.8983C30.5213 37.5183 30.3213 37.0183 30.3213 36.4783C30.3213 35.9583 30.5213 35.4383 30.9013 35.0583C31.4413 34.4983 32.3413 34.3383 33.0813 34.6383C33.3213 34.7383 33.5413 34.8783 33.7213 35.0583C34.1013 35.4383 34.3013 35.9583 34.3013 36.4783C34.3013 37.0183 34.1013 37.5183 33.7213 37.8983C33.3413 38.2783 32.8413 38.4783 32.3013 38.4783Z" fill="#8B82A7"/></svg>