<svg xmlns="http://www.w3.org/2000/svg" width="48" height="49" viewBox="0 0 48 49" fill="none" class="icon" data-v-8f8163e8=""><path opacity="0.6" d="M44 38.6378V44.6378H4V38.6378C4 37.5378 4.9 36.6378 6 36.6378H42C43.1 36.6378 44 37.5378 44 38.6378Z" fill="#8B82A7" stroke="#8B82A7" stroke-width="3.675" stroke-miterlimit="10" stroke-linecap="round" stroke-linejoin="round"/> <path opacity="0.6" d="M16.001 22.6377H8.00098V36.6377H16.001V22.6377Z" fill="#8B82A7"/> <path opacity="0.4" d="M23.999 22.6377H15.999V36.6377H23.999V22.6377Z" fill="#8B82A7"/> <path opacity="0.6" d="M32 22.6377H24V36.6377H32V22.6377Z" fill="#8B82A7"/> <path opacity="0.4" d="M40.001 22.6377H32.001V36.6377H40.001V22.6377Z" fill="#8B82A7"/> <path d="M46 46.1379H2C1.18 46.1379 0.5 45.4579 0.5 44.6379C0.5 43.8179 1.18 43.1379 2 43.1379H46C46.82 43.1379 47.5 43.8179 47.5 44.6379C47.5 45.4579 46.82 46.1379 46 46.1379Z" fill="#8B82A7"/> <path d="M42.74 12.1377L24.74 4.93775C24.34 4.77775 23.66 4.77775 23.26 4.93775L5.26001 12.1377C4.56001 12.4177 4 13.2377 4 13.9977V20.6377C4 21.7377 4.9 22.6377 6 22.6377H42C43.1 22.6377 44 21.7377 44 20.6377V13.9977C44 13.2377 43.44 12.4177 42.74 12.1377ZM24 17.6377C22.34 17.6377 21 16.2977 21 14.6377C21 12.9777 22.34 11.6377 24 11.6377C25.66 11.6377 27 12.9777 27 14.6377C27 16.2977 25.66 17.6377 24 17.6377Z" fill="#8B82A7"/></svg>