<svg xmlns="http://www.w3.org/2000/svg" width="38" height="38" viewBox="0 0 38 38" fill="none"><circle cx="18.9266" cy="18.9998" r="18.9266" fill="#EAF0FD"/> <path opacity="0.4" d="M23.24 9H14.76C12 9 11 10 11 12.81V25.19C11 28 12 29 14.76 29H23.23C26 29 27 28 27 25.19V12.81C27 10 26 9 23.24 9Z" fill="#5285F2"/> <path d="M21 13.25H17C16.59 13.25 16.25 12.91 16.25 12.5C16.25 12.09 16.59 11.75 17 11.75H21C21.41 11.75 21.75 12.09 21.75 12.5C21.75 12.91 21.41 13.25 21 13.25Z" fill="#5285F2"/> <path d="M19 26.2998C19.9665 26.2998 20.75 25.5163 20.75 24.5498C20.75 23.5833 19.9665 22.7998 19 22.7998C18.0335 22.7998 17.25 23.5833 17.25 24.5498C17.25 25.5163 18.0335 26.2998 19 26.2998Z" fill="#5285F2"/></svg>