<svg xmlns="http://www.w3.org/2000/svg" width="38" height="38" viewBox="0 0 38 38" fill="none"><circle cx="18.9266" cy="18.9266" r="18.9266" fill="#EAF0FD"/> <path d="M28.0891 13.9063C27.2391 12.9663 25.8191 12.4963 23.7591 12.4963H23.5191V12.4563C23.5191 10.7763 23.5191 8.69629 19.7591 8.69629H18.2391C14.4791 8.69629 14.4791 10.7863 14.4791 12.4563V12.5063H14.2391C12.1691 12.5063 10.7591 12.9763 9.90906 13.9163C8.91906 15.0163 8.94906 16.4963 9.04906 17.5063L9.05906 17.5763L9.15906 18.6263C9.16906 18.6363 9.18906 18.6563 9.20906 18.6663C9.53906 18.8863 9.87906 19.1063 10.2391 19.3063C10.3791 19.3963 10.5291 19.4763 10.6791 19.5563C12.3891 20.4963 14.2691 21.1263 16.1791 21.4363C16.2691 22.3763 16.6791 23.4763 18.8691 23.4763C21.0591 23.4763 21.4891 22.3863 21.5591 21.4163C23.5991 21.0863 25.5691 20.3763 27.3491 19.3363C27.4091 19.3063 27.4491 19.2763 27.4991 19.2463C27.9591 18.9863 28.3891 18.7063 28.8091 18.3963C28.8291 18.3863 28.8491 18.3663 28.8591 18.3463L28.8991 17.9863L28.9491 17.5163C28.9591 17.4563 28.9591 17.4063 28.9691 17.3363C29.0491 16.3263 29.0291 14.9463 28.0891 13.9063ZM20.0891 20.7563C20.0891 21.8163 20.0891 21.9763 18.8591 21.9763C17.6291 21.9763 17.6291 21.7863 17.6291 20.7663V19.5063H20.0891V20.7563ZM15.9091 12.4963V12.4563C15.9091 10.7563 15.9091 10.1263 18.2391 10.1263H19.7591C22.0891 10.1263 22.0891 10.7663 22.0891 12.4563V12.5063H15.9091V12.4963Z" fill="#5285F2"/> <path opacity="0.4" d="M27.5002 19.2271C27.4502 19.2571 27.4002 19.2871 27.3502 19.3171C25.5702 20.3571 23.6002 21.0571 21.5602 21.3971C21.4802 22.3571 21.0602 23.4571 18.8702 23.4571C16.6802 23.4571 16.2602 22.3671 16.1802 21.4171C14.2702 21.1171 12.3902 20.4871 10.6802 19.5371C10.5302 19.4571 10.3802 19.3771 10.2402 19.2871C9.88016 19.0871 9.54016 18.8671 9.21016 18.6471C9.19016 18.6371 9.17016 18.6171 9.16016 18.6071L9.77016 25.1171C9.98016 27.1071 10.8002 29.1571 15.2002 29.1571H22.8202C27.2202 29.1571 28.0402 27.1071 28.2502 25.1071L28.8802 18.3271C28.8702 18.3471 28.8502 18.3671 28.8302 18.3771C28.4002 18.6871 27.9602 18.9771 27.5002 19.2271Z" fill="#5285F2"/></svg>