<svg xmlns="http://www.w3.org/2000/svg" width="38" height="38" viewBox="0 0 38 38" fill="none"><circle cx="18.9266" cy="18.9998" r="18.9266" fill="#EAF0FD"/> <path d="M19.5002 21.25H17.0002C16.8664 21.25 16.7502 21.1339 16.7502 21C16.7502 20.8661 16.8664 20.75 17.0002 20.75H19.5002C22.3964 20.75 24.7502 18.3961 24.7502 15.5C24.7502 12.6039 22.3964 10.25 19.5002 10.25H14.5002C11.6041 10.25 9.25024 12.6039 9.25024 15.5C9.25024 16.7173 9.68139 17.8988 10.4532 18.8366C10.5408 18.9457 10.5276 19.1021 10.4213 19.1948C10.3115 19.281 10.1552 19.2663 10.0634 19.1587C9.20859 18.1284 8.74023 16.8321 8.74023 15.5C8.74023 12.3261 11.3164 9.75 14.4902 9.75H19.4902C22.6641 9.75 25.2402 12.3261 25.2402 15.5C25.2402 18.6749 22.6731 21.25 19.5002 21.25Z" fill="#5285F2" stroke="#5285F2"/> <path opacity="0.4" d="M23.5 28.75H18.5C15.05 28.75 12.25 25.95 12.25 22.5C12.25 19.05 15.05 16.25 18.5 16.25H21C21.41 16.25 21.75 16.59 21.75 17C21.75 17.41 21.41 17.75 21 17.75H18.5C15.88 17.75 13.75 19.88 13.75 22.5C13.75 25.12 15.88 27.25 18.5 27.25H23.5C26.12 27.25 28.25 25.12 28.25 22.5C28.25 21.4 27.86 20.33 27.16 19.48C26.9 19.16 26.94 18.69 27.26 18.42C27.58 18.15 28.05 18.2 28.32 18.52C29.25 19.64 29.76 21.05 29.76 22.5C29.75 25.95 26.95 28.75 23.5 28.75Z" fill="#5285F2"/></svg>