<svg xmlns="http://www.w3.org/2000/svg" width="38" height="38" viewBox="0 0 38 38" fill="none"><circle cx="18.9266" cy="18.9998" r="18.9266" fill="#EAF0FD"/> <path d="M28.25 29H9.75C9.34 29 9 28.66 9 28.25C9 27.84 9.34 27.5 9.75 27.5H28.25C28.66 27.5 29 27.84 29 28.25C29 28.66 28.66 29 28.25 29Z" fill="#5285F2"/> <path opacity="0.4" d="M27.5909 20.6997L20.3609 27.9297C18.9409 29.3497 16.6509 29.3497 15.2409 27.9397L10.6309 23.3297L22.9909 10.9697L27.6009 15.5797C29.0109 16.9897 29.0109 19.2797 27.5909 20.6997Z" fill="#5285F2"/> <path d="M22.9886 10.9702L10.6186 23.3302L9.7086 22.4202C8.2986 21.0102 8.2986 18.7202 9.7186 17.3002L16.9486 10.0702C18.3686 8.65016 20.6586 8.65016 22.0686 10.0602L22.9886 10.9702Z" fill="#5285F2"/> <path d="M19.8903 24.5999L18.5403 25.9499C18.2603 26.2299 17.8103 26.2299 17.5303 25.9499C17.2503 25.6699 17.2503 25.2199 17.5303 24.9399L18.8803 23.5899C19.1603 23.3099 19.6103 23.3099 19.8903 23.5899C20.1703 23.8699 20.1703 24.3199 19.8903 24.5999Z" fill="#5285F2"/> <path d="M24.2694 20.22L21.5794 22.91C21.2994 23.19 20.8494 23.19 20.5694 22.91C20.2894 22.63 20.2894 22.18 20.5694 21.9L23.2594 19.21C23.5394 18.93 23.9894 18.93 24.2694 19.21C24.5394 19.49 24.5394 19.94 24.2694 20.22Z" fill="#5285F2"/></svg>