<svg xmlns="http://www.w3.org/2000/svg" width="38" height="38" viewBox="0 0 38 38" fill="none"><circle cx="18.9266" cy="18.9266" r="18.9266" fill="#EAF0FD"/> <path d="M29 12.9268V15.3468C29 16.9268 28 17.9268 26.42 17.9268H23V10.9368C23 9.82684 23.91 8.91684 25.02 8.92684C26.11 8.93684 27.11 9.37684 27.83 10.0968C28.55 10.8268 29 11.8268 29 12.9268Z" fill="#5285F2"/> <path opacity="0.4" d="M9 13.9268V27.9268C9 28.7568 9.94 29.2268 10.6 28.7268L12.31 27.4468C12.71 27.1468 13.27 27.1868 13.63 27.5468L15.29 29.2168C15.68 29.6068 16.32 29.6068 16.71 29.2168L18.39 27.5368C18.74 27.1868 19.3 27.1468 19.69 27.4468L21.4 28.7268C22.06 29.2168 23 28.7468 23 27.9268V10.9268C23 9.82676 23.9 8.92676 25 8.92676H14H13C10 8.92676 9 10.7168 9 12.9268V13.9268Z" fill="#5285F2"/> <path d="M19 19.1865H16C15.59 19.1865 15.25 19.5265 15.25 19.9365C15.25 20.3465 15.59 20.6865 16 20.6865H19C19.41 20.6865 19.75 20.3465 19.75 19.9365C19.75 19.5265 19.41 19.1865 19 19.1865Z" fill="#5285F2"/> <path d="M16 16.6865H19C19.41 16.6865 19.75 16.3465 19.75 15.9365C19.75 15.5265 19.41 15.1865 19 15.1865H16C15.59 15.1865 15.25 15.5265 15.25 15.9365C15.25 16.3465 15.59 16.6865 16 16.6865Z" fill="#5285F2"/> <path d="M12.9688 14.9365C12.4087 14.9365 11.9688 15.3865 11.9688 15.9365C11.9688 16.4865 12.4187 16.9365 12.9688 16.9365C13.5187 16.9365 13.9688 16.4865 13.9688 15.9365C13.9688 15.3865 13.5187 14.9365 12.9688 14.9365Z" fill="#5285F2"/> <path d="M12.9688 18.9365C12.4087 18.9365 11.9688 19.3865 11.9688 19.9365C11.9688 20.4865 12.4187 20.9365 12.9688 20.9365C13.5187 20.9365 13.9688 20.4865 13.9688 19.9365C13.9688 19.3865 13.5187 18.9365 12.9688 18.9365Z" fill="#5285F2"/></svg>