<svg xmlns="http://www.w3.org/2000/svg" width="48" height="49" viewBox="0 0 48 49" fill="none" class="icon" data-v-8f8163e8=""><path opacity="0.4" d="M44 18.6379V33.5579C44 38.1379 40.28 41.8379 35.7 41.8379H12.3C7.72 41.8379 4 38.1379 4 33.5579V18.6379H44Z" fill="#8B82A7"/> <path opacity="0.6" d="M42.775 15.718V17.413H5.225V15.718C5.225 11.8184 8.3927 8.66299 12.3 8.66299H35.7C39.6073 8.66299 42.775 11.8184 42.775 15.718Z" fill="#8B82A7" stroke="#8B82A7" stroke-width="2.45"/> <path d="M16.001 35.1381H12.001C11.181 35.1381 10.501 34.4581 10.501 33.6381C10.501 32.8181 11.181 32.1381 12.001 32.1381H16.001C16.821 32.1381 17.501 32.8181 17.501 33.6381C17.501 34.4581 16.821 35.1381 16.001 35.1381Z" fill="#8B82A7"/> <path d="M29 35.1381H21C20.18 35.1381 19.5 34.4581 19.5 33.6381C19.5 32.8181 20.18 32.1381 21 32.1381H29C29.82 32.1381 30.5 32.8181 30.5 33.6381C30.5 34.4581 29.82 35.1381 29 35.1381Z" fill="#8B82A7"/></svg>