<svg xmlns="http://www.w3.org/2000/svg" width="48" height="49" viewBox="0 0 48 49" fill="none" class="icon" data-v-8f8163e8=""><path opacity="0.4" d="M22.0008 15.6381V33.6381C22.0008 34.7381 21.1008 35.6381 20.0008 35.6381H15.0008C11.9608 35.6381 9.22076 34.3981 7.22076 32.4181C5.34076 30.5181 4.12076 27.9381 4.00076 25.0781C3.76076 18.7981 9.24076 13.6381 15.5408 13.6381H20.0008C21.1008 13.6381 22.0008 14.5381 22.0008 15.6381Z" fill="#8B82A7"/> <path opacity="0.6" d="M42.7756 24.2486C43.0037 29.776 38.1625 34.4131 32.4795 34.4131H28.0195C27.5961 34.4131 27.2445 34.0615 27.2445 33.6381V15.6381C27.2445 15.2146 27.5961 14.8631 28.0195 14.8631H33.0195C35.7145 14.8631 38.1471 15.9593 39.9309 17.7219C41.5886 19.4185 42.669 21.7133 42.7756 24.2486Z" fill="#8B82A7" stroke="#8B82A7" stroke-width="2.45"/> <path d="M31.999 26.1381H15.999C15.179 26.1381 14.499 25.4581 14.499 24.6381C14.499 23.8181 15.179 23.1381 15.999 23.1381H31.999C32.819 23.1381 33.499 23.8181 33.499 24.6381C33.499 25.4581 32.819 26.1381 31.999 26.1381Z" fill="#8B82A7"/></svg>