<svg xmlns="http://www.w3.org/2000/svg" width="48" height="49" viewBox="0 0 48 49" fill="none" class="icon" data-v-8f8163e8=""><path opacity="0.6" d="M42.7745 17.4779V12.6379C42.7745 10.7803 42.0162 9.08547 40.7903 7.84109C39.5744 6.62671 37.8815 5.87986 36.0285 5.86281L42.7745 17.4779ZM42.7745 17.4779C42.7745 18.7956 42.3628 19.7522 41.7383 20.3767M42.7745 17.4779L41.7383 20.3767M41.7383 20.3767C41.1138 21.0011 40.1573 21.4129 38.8395 21.4129M41.7383 20.3767L38.8395 21.4129M38.8395 21.4129H33.2245M38.8395 21.4129H33.2245M33.2245 21.4129V8.65786C33.2245 7.1123 34.4957 5.84911 36.0283 5.86281L33.2245 21.4129Z" fill="#8B82A7" stroke="#8B82A7" stroke-width="2.45"/> <path opacity="0.4" d="M4.00049 14.6381V42.6381C4.00049 44.2981 5.88049 45.2381 7.20049 44.2381L10.6205 41.6781C11.4205 41.0781 12.5405 41.1581 13.2605 41.8781L16.5805 45.2181C17.3605 45.9981 18.6405 45.9981 19.4205 45.2181L22.7805 41.8581C23.4805 41.1581 24.6005 41.0781 25.3805 41.6781L28.8005 44.2381C30.1205 45.2181 32.0005 44.2781 32.0005 42.6381V8.63806C32.0005 6.43806 33.8005 4.63806 36.0005 4.63806H14.0005H12.0005C6.00049 4.63806 4.00049 8.21806 4.00049 12.6381V14.6381Z" fill="#8B82A7"/> <path d="M24.0005 25.1573H18.0005C17.1805 25.1573 16.5005 25.8373 16.5005 26.6573C16.5005 27.4773 17.1805 28.1573 18.0005 28.1573H24.0005C24.8205 28.1573 25.5005 27.4773 25.5005 26.6573C25.5005 25.8373 24.8205 25.1573 24.0005 25.1573Z" fill="#8B82A7"/> <path d="M18.0005 20.1575H24.0005C24.8205 20.1575 25.5005 19.4775 25.5005 18.6575C25.5005 17.8375 24.8205 17.1575 24.0005 17.1575H18.0005C17.1805 17.1575 16.5005 17.8375 16.5005 18.6575C16.5005 19.4775 17.1805 20.1575 18.0005 20.1575Z" fill="#8B82A7"/> <path d="M11.9399 16.6575C10.8199 16.6575 9.93994 17.5575 9.93994 18.6575C9.93994 19.7575 10.8399 20.6575 11.9399 20.6575C13.0399 20.6575 13.9399 19.7575 13.9399 18.6575C13.9399 17.5575 13.0399 16.6575 11.9399 16.6575Z" fill="#8B82A7"/> <path d="M11.9399 24.6573C10.8199 24.6573 9.93994 25.5573 9.93994 26.6573C9.93994 27.7573 10.8399 28.6573 11.9399 28.6573C13.0399 28.6573 13.9399 27.7573 13.9399 26.6573C13.9399 25.5573 13.0399 24.6573 11.9399 24.6573Z" fill="#8B82A7"/></svg>